<svg width="96" height="84" viewBox="0 0 96 84" fill="none" xmlns="http://www.w3.org/2000/svg">
<rect x="85" y="79" width="2" height="2" transform="rotate(-180 85 79)" fill="white"/>
<rect x="73" y="79" width="2" height="2" transform="rotate(-180 73 79)" fill="white"/>
<rect x="61" y="79" width="2" height="2" transform="rotate(-180 61 79)" fill="white"/>
<rect x="49" y="79" width="2" height="2" transform="rotate(-180 49 79)" fill="white"/>
<rect x="37" y="79" width="2" height="2" transform="rotate(-180 37 79)" fill="white"/>
<rect x="25" y="79" width="2" height="2" transform="rotate(-180 25 79)" fill="white"/>
<rect x="13" y="79" width="2" height="2" transform="rotate(-180 13 79)" fill="white"/>
<rect x="85" y="67" width="2" height="2" transform="rotate(-180 85 67)" fill="white"/>
<rect x="73" y="67" width="2" height="2" transform="rotate(-180 73 67)" fill="white"/>
<rect x="61" y="67" width="2" height="2" transform="rotate(-180 61 67)" fill="white"/>
<rect x="49" y="67" width="2" height="2" transform="rotate(-180 49 67)" fill="white"/>
<rect x="37" y="67" width="2" height="2" transform="rotate(-180 37 67)" fill="white"/>
<rect x="25" y="67" width="2" height="2" transform="rotate(-180 25 67)" fill="white"/>
<rect x="13" y="67" width="2" height="2" transform="rotate(-180 13 67)" fill="white"/>
<rect x="85" y="55" width="2" height="2" transform="rotate(-180 85 55)" fill="white"/>
<rect x="73" y="55" width="2" height="2" transform="rotate(-180 73 55)" fill="white"/>
<rect x="61" y="55" width="2" height="2" transform="rotate(-180 61 55)" fill="white"/>
<rect x="49" y="55" width="2" height="2" transform="rotate(-180 49 55)" fill="white"/>
<rect x="37" y="55" width="2" height="2" transform="rotate(-180 37 55)" fill="white"/>
<rect x="25" y="55" width="2" height="2" transform="rotate(-180 25 55)" fill="white"/>
<rect x="13" y="55" width="2" height="2" transform="rotate(-180 13 55)" fill="white"/>
<rect x="85" y="43" width="2" height="2" transform="rotate(-180 85 43)" fill="white"/>
<rect x="73" y="43" width="2" height="2" transform="rotate(-180 73 43)" fill="white"/>
<rect x="63" y="45" width="6" height="6" transform="rotate(-180 63 45)" fill="white"/>
<rect x="51" y="45" width="6" height="6" transform="rotate(-180 51 45)" fill="white"/>
<rect x="39" y="45" width="6" height="6" transform="rotate(-180 39 45)" fill="white"/>
<rect x="25" y="43" width="2" height="2" transform="rotate(-180 25 43)" fill="white"/>
<rect x="13" y="43" width="2" height="2" transform="rotate(-180 13 43)" fill="white"/>
<rect x="85" y="31" width="2" height="2" transform="rotate(-180 85 31)" fill="white"/>
<rect x="73" y="31" width="2" height="2" transform="rotate(-180 73 31)" fill="white"/>
<rect x="61" y="31" width="2" height="2" transform="rotate(-180 61 31)" fill="white"/>
<rect x="49" y="31" width="2" height="2" transform="rotate(-180 49 31)" fill="white"/>
<rect x="37" y="31" width="2" height="2" transform="rotate(-180 37 31)" fill="white"/>
<rect x="25" y="31" width="2" height="2" transform="rotate(-180 25 31)" fill="white"/>
<rect x="13" y="31" width="2" height="2" transform="rotate(-180 13 31)" fill="white"/>
<rect x="85" y="19" width="2" height="2" transform="rotate(-180 85 19)" fill="white"/>
<rect x="73" y="19" width="2" height="2" transform="rotate(-180 73 19)" fill="white"/>
<rect x="61" y="19" width="2" height="2" transform="rotate(-180 61 19)" fill="white"/>
<rect x="49" y="19" width="2" height="2" transform="rotate(-180 49 19)" fill="white"/>
<rect x="37" y="19" width="2" height="2" transform="rotate(-180 37 19)" fill="white"/>
<rect x="25" y="19" width="2" height="2" transform="rotate(-180 25 19)" fill="white"/>
<rect x="13" y="19" width="2" height="2" transform="rotate(-180 13 19)" fill="white"/>
<rect x="85" y="7.00001" width="2" height="2" transform="rotate(-180 85 7.00001)" fill="white"/>
<rect x="73" y="7.00001" width="2" height="2" transform="rotate(-180 73 7.00001)" fill="white"/>
<rect x="61" y="7.00001" width="2" height="2" transform="rotate(-180 61 7.00001)" fill="white"/>
<rect x="49" y="7.00001" width="2" height="2" transform="rotate(-180 49 7.00001)" fill="white"/>
<rect x="37" y="7.00001" width="2" height="2" transform="rotate(-180 37 7.00001)" fill="white"/>
<rect x="25" y="7.00001" width="2" height="2" transform="rotate(-180 25 7.00001)" fill="white"/>
<rect x="13" y="7.00001" width="2" height="2" transform="rotate(-180 13 7.00001)" fill="white"/>
</svg>
