<svg width="36" height="36" viewBox="0 0 36 36" fill="none" xmlns="http://www.w3.org/2000/svg">
<path d="M20.2491 22.5C20.2491 22.8978 20.4072 23.2794 20.6885 23.5607C20.9698 23.842 21.3513 24 21.7491 24H26.9991C27.397 24 27.7785 23.842 28.0598 23.5607C28.3411 23.2794 28.4991 22.8978 28.4991 22.5V17.25C28.4991 16.8522 28.3411 16.4706 28.0598 16.1893C27.7785 15.908 27.397 15.75 26.9991 15.75C26.6013 15.75 26.2198 15.908 25.9385 16.1893C25.6572 16.4706 25.4991 16.8522 25.4991 17.25V18.879L19.0596 12.4395C18.7784 12.1583 18.3969 12.0003 17.9991 12.0003C17.6014 12.0003 17.2199 12.1583 16.9386 12.4395L13.4991 15.879L10.0596 12.4395C9.77674 12.1663 9.39784 12.0151 9.00454 12.0185C8.61125 12.0219 8.23503 12.1797 7.95692 12.4578C7.67881 12.7359 7.52105 13.1121 7.51763 13.5054C7.51422 13.8987 7.66541 14.2776 7.93865 14.5605L12.4386 19.0605C12.7199 19.3417 13.1014 19.4997 13.4991 19.4997C13.8969 19.4997 14.2784 19.3417 14.5596 19.0605L17.9991 15.621L23.3781 21H21.7491C21.3513 21 20.9698 21.158 20.6885 21.4393C20.4072 21.7206 20.2491 22.1022 20.2491 22.5Z" fill="#2C4FD0"/>
</svg>
