<svg width="48" height="48" viewBox="0 0 48 48" fill="none" xmlns="http://www.w3.org/2000/svg">
<circle cx="24" cy="24" r="24" fill="#FFE5E5"/>
<path fill-rule="evenodd" clip-rule="evenodd" d="M13.9702 16.576C13.7876 16.3934 13.5708 16.2485 13.3322 16.1497C13.0937 16.0509 12.838 16 12.5797 16C12.0582 16 11.558 16.2072 11.1892 16.576C10.8205 16.9447 10.6133 17.4449 10.6133 17.9664C10.6133 18.488 10.8205 18.9881 11.1892 19.3569L17.7397 25.9055L17.7535 25.9192C18.2887 26.4434 19.008 26.737 19.7572 26.737C20.5063 26.737 21.2256 26.4434 21.7608 25.9192L21.7746 25.9055L25.1177 22.5624L29.7303 27.4404L27.6864 29.4844C27.4805 29.6905 27.3403 29.953 27.2835 30.2388C27.2268 30.5245 27.256 30.8207 27.3674 31.0899C27.4789 31.3591 27.6676 31.5892 27.9098 31.7512C28.1519 31.9132 28.4367 31.9997 28.728 32H35.9074C36.2983 32 36.6733 31.8447 36.9497 31.5683C37.2261 31.2918 37.3814 30.9169 37.3814 30.526V23.3525C37.3812 23.0611 37.2946 22.7764 37.1326 22.5342C36.9706 22.2921 36.7405 22.1033 36.4713 21.9919C36.2021 21.8804 35.906 21.8512 35.6202 21.908C35.3344 21.9648 35.0719 22.105 34.8658 22.3108L32.5113 24.6634L27.197 19.0425L27.1439 18.9874C26.6086 18.4626 25.8889 18.1687 25.1393 18.1687C24.3896 18.1687 23.6699 18.4626 23.1346 18.9874L23.1228 19.0012L19.7562 22.3659L13.9702 16.576Z" fill="#FF4B4B"/>
</svg>
