<svg width="24" height="24" viewBox="0 0 24 24" fill="none" xmlns="http://www.w3.org/2000/svg">
<path fill-rule="evenodd" clip-rule="evenodd" d="M12 2C12.901 2 13.774 2.12 14.605 2.344C14.0859 2.61661 13.658 3.03539 13.3743 3.54855C13.0906 4.06172 12.9635 4.64678 13.0087 5.2314C13.0539 5.81602 13.2695 6.37458 13.6287 6.83802C13.9879 7.30145 14.4751 7.64946 15.03 7.839L15.408 7.968C15.5528 8.01735 15.6844 8.09926 15.7926 8.20745C15.9007 8.31563 15.9827 8.44719 16.032 8.592L16.162 8.97C16.3519 9.52433 16.6999 10.0109 17.1631 10.3697C17.6264 10.7285 18.1845 10.9438 18.7687 10.989C19.3529 11.0342 19.9376 10.9073 20.4505 10.6241C20.9634 10.3408 21.3821 9.91353 21.655 9.395C21.8841 10.2444 22.0001 11.1203 22 12C22 17.523 17.523 22 12 22C10.11 22 8.34001 21.475 6.83201 20.563L3.80001 21.454C3.62593 21.5052 3.44126 21.5086 3.26542 21.4638C3.08959 21.4189 2.92908 21.3276 2.80077 21.1992C2.67246 21.0709 2.58108 20.9104 2.53625 20.7346C2.49142 20.5587 2.49479 20.3741 2.54601 20.2L3.43801 17.168C2.49506 15.6093 1.99769 13.8218 2.00001 12C2.00001 6.477 6.47701 2 12 2ZM8.50001 10.5C8.10218 10.5 7.72065 10.658 7.43935 10.9393C7.15804 11.2206 7.00001 11.6022 7.00001 12C7.00001 12.3978 7.15804 12.7794 7.43935 13.0607C7.72065 13.342 8.10218 13.5 8.50001 13.5C8.89783 13.5 9.27936 13.342 9.56067 13.0607C9.84197 12.7794 10 12.3978 10 12C10 11.6022 9.84197 11.2206 9.56067 10.9393C9.27936 10.658 8.89783 10.5 8.50001 10.5ZM15.5 10.5C15.1022 10.5 14.7207 10.658 14.4393 10.9393C14.158 11.2206 14 11.6022 14 12C14 12.3978 14.158 12.7794 14.4393 13.0607C14.7207 13.342 15.1022 13.5 15.5 13.5C15.8978 13.5 16.2794 13.342 16.5607 13.0607C16.842 12.7794 17 12.3978 17 12C17 11.6022 16.842 11.2206 16.5607 10.9393C16.2794 10.658 15.8978 10.5 15.5 10.5ZM19 1C19.2086 1.00008 19.4119 1.06539 19.5816 1.18679C19.7512 1.30818 19.8786 1.47959 19.946 1.677L20.076 2.055C20.376 2.934 21.066 3.625 21.946 3.925L22.323 4.054C22.5202 4.12157 22.6914 4.24908 22.8125 4.41869C22.9337 4.58831 22.9988 4.79155 22.9988 5C22.9988 5.20845 22.9337 5.41169 22.8125 5.58131C22.6914 5.75092 22.5202 5.87843 22.323 5.946L21.945 6.076C21.066 6.376 20.375 7.066 20.075 7.946L19.946 8.323C19.8784 8.5202 19.7509 8.69134 19.5813 8.81252C19.4117 8.93369 19.2085 8.99883 19 8.99883C18.7916 8.99883 18.5883 8.93369 18.4187 8.81252C18.2491 8.69134 18.1216 8.5202 18.054 8.323L17.924 7.945C17.7759 7.51114 17.5303 7.11699 17.2062 6.79283C16.882 6.46866 16.4879 6.2231 16.054 6.075L15.677 5.946C15.4798 5.87843 15.3087 5.75092 15.1875 5.58131C15.0663 5.41169 15.0012 5.20845 15.0012 5C15.0012 4.79155 15.0663 4.58831 15.1875 4.41869C15.3087 4.24908 15.4798 4.12157 15.677 4.054L16.055 3.924C16.934 3.624 17.625 2.934 17.925 2.054L18.054 1.677C18.1214 1.47959 18.2488 1.30818 18.4184 1.18679C18.5881 1.06539 18.7914 1.00008 19 1Z" fill="white"/>
</svg>
