<svg width="36" height="36" viewBox="0 0 36 36" fill="none" xmlns="http://www.w3.org/2000/svg">
<path d="M20.2491 13.5C20.2491 13.1022 20.4072 12.7206 20.6885 12.4393C20.9698 12.158 21.3513 12 21.7491 12H26.9991C27.397 12 27.7785 12.158 28.0598 12.4393C28.3411 12.7206 28.4991 13.1022 28.4991 13.5V18.75C28.4991 19.1478 28.3411 19.5294 28.0598 19.8107C27.7785 20.092 27.397 20.25 26.9991 20.25C26.6013 20.25 26.2198 20.092 25.9385 19.8107C25.6572 19.5294 25.4991 19.1478 25.4991 18.75V17.121L19.0596 23.5605C18.7784 23.8417 18.3969 23.9997 17.9991 23.9997C17.6014 23.9997 17.2199 23.8417 16.9386 23.5605L13.4991 20.121L10.0596 23.5605C9.77674 23.8337 9.39784 23.9849 9.00454 23.9815C8.61125 23.9781 8.23503 23.8203 7.95692 23.5422C7.67881 23.2641 7.52105 22.8879 7.51763 22.4946C7.51422 22.1013 7.66541 21.7224 7.93865 21.4395L12.4386 16.9395C12.7199 16.6583 13.1014 16.5003 13.4991 16.5003C13.8969 16.5003 14.2784 16.6583 14.5596 16.9395L17.9991 20.379L23.3781 15H21.7491C21.3513 15 20.9698 14.842 20.6885 14.5607C20.4072 14.2794 20.2491 13.8978 20.2491 13.5Z" fill="#2C4FD0"/>
</svg>
