<svg width="48" height="48" viewBox="0 0 48 48" fill="none" xmlns="http://www.w3.org/2000/svg">
<circle cx="24" cy="24" r="24" fill="#F5F5F5"/>
<path fill-rule="evenodd" clip-rule="evenodd" d="M13.9702 31.424C13.7876 31.6066 13.5708 31.7515 13.3322 31.8503C13.0937 31.9491 12.838 32 12.5797 32C12.0582 32 11.558 31.7928 11.1892 31.424C10.8205 31.0553 10.6133 30.5551 10.6133 30.0336C10.6133 29.512 10.8205 29.0119 11.1892 28.6431L17.7397 22.0945L17.7535 22.0808C18.2887 21.5566 19.008 21.263 19.7572 21.263C20.5063 21.263 21.2256 21.5566 21.7608 22.0808L21.7746 22.0945L25.1177 25.4376L29.7303 20.5596L27.6864 18.5156C27.4805 18.3095 27.3403 18.047 27.2835 17.7612C27.2268 17.4755 27.256 17.1793 27.3674 16.9101C27.4789 16.6409 27.6676 16.4108 27.9098 16.2488C28.1519 16.0868 28.4367 16.0003 28.728 16H35.9074C36.2983 16 36.6733 16.1553 36.9497 16.4317C37.2261 16.7082 37.3814 17.0831 37.3814 17.474V24.6475C37.3812 24.9389 37.2946 25.2236 37.1326 25.4658C36.9706 25.7079 36.7405 25.8967 36.4713 26.0081C36.2021 26.1196 35.906 26.1488 35.6202 26.092C35.3344 26.0352 35.0719 25.895 34.8658 25.6892L32.5113 23.3366L27.197 28.9575L27.1439 29.0126C26.6086 29.5374 25.8889 29.8313 25.1393 29.8313C24.3896 29.8313 23.6699 29.5374 23.1346 29.0126L23.1228 28.9988L19.7562 25.6341L13.9702 31.424Z" fill="#BCBCBC"/>
</svg>
