<svg width="20" height="20" viewBox="0 0 20 20" fill="none" xmlns="http://www.w3.org/2000/svg">
<path d="M8.14507 4.52693C8.58366 3.24342 10.3571 3.20454 10.8771 4.41031L10.9211 4.52766L11.513 6.25856C11.6486 6.65552 11.8678 7.01877 12.1558 7.32382C12.4438 7.62886 12.7938 7.8686 13.1823 8.02687L13.3414 8.08628L15.0723 8.67742C16.3559 9.11602 16.3947 10.8895 15.1897 11.4095L15.0723 11.4535L13.3414 12.0454C12.9443 12.1809 12.581 12.4001 12.2758 12.688C11.9706 12.976 11.7307 13.3261 11.5724 13.7146L11.513 13.8731L10.9218 15.6047C10.4833 16.8882 8.70981 16.9271 8.19054 15.7221L8.14507 15.6047L7.55392 13.8738C7.41836 13.4767 7.19921 13.1133 6.91124 12.8081C6.62327 12.503 6.27319 12.2631 5.88462 12.1048L5.7262 12.0454L3.9953 11.4542C2.71106 11.0156 2.67219 9.24217 3.87795 8.7229L3.9953 8.67742L5.7262 8.08628C6.12316 7.95063 6.48641 7.73144 6.79146 7.44347C7.0965 7.15551 7.33624 6.80548 7.49451 6.41698L7.55392 6.25856L8.14507 4.52693ZM15.4009 1.99805C15.5381 1.99805 15.6726 2.03654 15.789 2.10914C15.9054 2.18175 15.9992 2.28555 16.0595 2.40877L16.0947 2.49458L16.3515 3.24708L17.1047 3.50379C17.2422 3.5505 17.3627 3.63699 17.451 3.75228C17.5393 3.86758 17.5914 4.00649 17.6007 4.15142C17.61 4.29635 17.576 4.44077 17.5031 4.56637C17.4302 4.69198 17.3217 4.79312 17.1912 4.85697L17.1047 4.89217L16.3522 5.14888L16.0955 5.90211C16.0487 6.03958 15.9621 6.16006 15.8468 6.24829C15.7315 6.33652 15.5925 6.38852 15.4476 6.39771C15.3027 6.4069 15.1583 6.37286 15.0327 6.29991C14.9072 6.22696 14.8061 6.11838 14.7423 5.98792L14.7071 5.90211L14.4504 5.14961L13.6972 4.89291C13.5597 4.84619 13.4391 4.75971 13.3508 4.64441C13.2625 4.52911 13.2104 4.3902 13.2012 4.24527C13.1919 4.10034 13.2258 3.95592 13.2987 3.83032C13.3716 3.70471 13.4802 3.60358 13.6106 3.53972L13.6972 3.50452L14.4497 3.24782L14.7064 2.49458C14.7558 2.34967 14.8494 2.22388 14.9739 2.13483C15.0985 2.04579 15.2478 1.99795 15.4009 1.99805Z" fill="white"/>
</svg>
