<svg width="24" height="24" viewBox="0 0 24 24" fill="none" xmlns="http://www.w3.org/2000/svg">
<path fill-rule="evenodd" clip-rule="evenodd" d="M13.0909 2.90909C13.0909 2.66799 12.9951 2.43675 12.8246 2.26627C12.6542 2.09578 12.4229 2 12.1818 2C11.9407 2 11.7095 2.09578 11.539 2.26627C11.3685 2.43675 11.2727 2.66799 11.2727 2.90909V3.81818H6.72727C6.00395 3.81818 5.31026 4.10552 4.7988 4.61698C4.28734 5.12844 4 5.82214 4 6.54545V17.4545C4 18.1779 4.28734 18.8716 4.7988 19.383C5.31026 19.8945 6.00395 20.1818 6.72727 20.1818H11.2727V21.0909C11.2727 21.332 11.3685 21.5632 11.539 21.7337C11.7095 21.9042 11.9407 22 12.1818 22C12.4229 22 12.6542 21.9042 12.8246 21.7337C12.9951 21.5632 13.0909 21.332 13.0909 21.0909V20.1818C13.332 20.1818 13.5632 20.086 13.7337 19.9156C13.9042 19.7451 14 19.5138 14 19.2727C14 19.0316 13.9042 18.8004 13.7337 18.6299C13.5632 18.4594 13.332 18.3636 13.0909 18.3636V5.63636C13.332 5.63636 13.5632 5.54058 13.7337 5.3701C13.9042 5.19961 14 4.96838 14 4.72727C14 4.48617 13.9042 4.25494 13.7337 4.08445C13.5632 3.91396 13.332 3.81818 13.0909 3.81818V2.90909ZM16.7273 3.81818C16.4862 3.81818 16.2549 3.91396 16.0844 4.08445C15.914 4.25494 15.8182 4.48617 15.8182 4.72727C15.8182 4.96838 15.914 5.19961 16.0844 5.3701C16.2549 5.54058 16.4862 5.63636 16.7273 5.63636H17.6364C17.8775 5.63636 18.1087 5.73214 18.2792 5.90263C18.4497 6.07312 18.5455 6.30435 18.5455 6.54545V7.45455C18.5455 7.69565 18.6412 7.92688 18.8117 8.09737C18.9822 8.26786 19.2134 8.36364 19.4545 8.36364C19.6957 8.36364 19.9269 8.26786 20.0974 8.09737C20.2679 7.92688 20.3636 7.69565 20.3636 7.45455V6.54545C20.3636 5.82214 20.0763 5.12844 19.5648 4.61698C19.0534 4.10552 18.3597 3.81818 17.6364 3.81818H16.7273ZM20.3636 11.0909C20.3636 10.8498 20.2679 10.6186 20.0974 10.4481C19.9269 10.2776 19.6957 10.1818 19.4545 10.1818C19.2134 10.1818 18.9822 10.2776 18.8117 10.4481C18.6412 10.6186 18.5455 10.8498 18.5455 11.0909V12.9091C18.5455 13.1502 18.6412 13.3814 18.8117 13.5519C18.9822 13.7224 19.2134 13.8182 19.4545 13.8182C19.6957 13.8182 19.9269 13.7224 20.0974 13.5519C20.2679 13.3814 20.3636 13.1502 20.3636 12.9091V11.0909ZM20.3636 16.5455C20.3636 16.3043 20.2679 16.0731 20.0974 15.9026C19.9269 15.7321 19.6957 15.6364 19.4545 15.6364C19.2134 15.6364 18.9822 15.7321 18.8117 15.9026C18.6412 16.0731 18.5455 16.3043 18.5455 16.5455V17.4545C18.5455 17.6957 18.4497 17.9269 18.2792 18.0974C18.1087 18.2679 17.8775 18.3636 17.6364 18.3636H16.7273C16.4862 18.3636 16.2549 18.4594 16.0844 18.6299C15.914 18.8004 15.8182 19.0316 15.8182 19.2727C15.8182 19.5138 15.914 19.7451 16.0844 19.9156C16.2549 20.086 16.4862 20.1818 16.7273 20.1818H17.6364C18.3597 20.1818 19.0534 19.8945 19.5648 19.383C20.0763 18.8716 20.3636 18.1779 20.3636 17.4545V16.5455Z" fill="#454545"/>
</svg>
