<svg width="24" height="24" viewBox="0 0 24 24" fill="none" xmlns="http://www.w3.org/2000/svg">
<path d="M8.39961 2.40039C9.06336 2.40039 9.59961 2.93664 9.59961 3.60039V4.80039H14.3996V3.60039C14.3996 2.93664 14.9359 2.40039 15.5996 2.40039C16.2634 2.40039 16.7996 2.93664 16.7996 3.60039V4.80039H17.9996C19.3234 4.80039 20.3996 5.87664 20.3996 7.20039V18.0004C20.3996 19.3241 19.3234 20.4004 17.9996 20.4004H5.99961C4.67586 20.4004 3.59961 19.3241 3.59961 18.0004V7.20039C3.59961 5.87664 4.67586 4.80039 5.99961 4.80039H7.19961V3.60039C7.19961 2.93664 7.73586 2.40039 8.39961 2.40039ZM5.99961 11.4004V12.6004C5.99961 12.9304 6.26961 13.2004 6.59961 13.2004H7.79961C8.12961 13.2004 8.39961 12.9304 8.39961 12.6004V11.4004C8.39961 11.0704 8.12961 10.8004 7.79961 10.8004H6.59961C6.26961 10.8004 5.99961 11.0704 5.99961 11.4004ZM10.7996 11.4004V12.6004C10.7996 12.9304 11.0696 13.2004 11.3996 13.2004H12.5996C12.9296 13.2004 13.1996 12.9304 13.1996 12.6004V11.4004C13.1996 11.0704 12.9296 10.8004 12.5996 10.8004H11.3996C11.0696 10.8004 10.7996 11.0704 10.7996 11.4004ZM16.1996 10.8004C15.8696 10.8004 15.5996 11.0704 15.5996 11.4004V12.6004C15.5996 12.9304 15.8696 13.2004 16.1996 13.2004H17.3996C17.7296 13.2004 17.9996 12.9304 17.9996 12.6004V11.4004C17.9996 11.0704 17.7296 10.8004 17.3996 10.8004H16.1996ZM5.99961 16.2004V17.4004C5.99961 17.7304 6.26961 18.0004 6.59961 18.0004H7.79961C8.12961 18.0004 8.39961 17.7304 8.39961 17.4004V16.2004C8.39961 15.8704 8.12961 15.6004 7.79961 15.6004H6.59961C6.26961 15.6004 5.99961 15.8704 5.99961 16.2004ZM11.3996 15.6004C11.0696 15.6004 10.7996 15.8704 10.7996 16.2004V17.4004C10.7996 17.7304 11.0696 18.0004 11.3996 18.0004H12.5996C12.9296 18.0004 13.1996 17.7304 13.1996 17.4004V16.2004C13.1996 15.8704 12.9296 15.6004 12.5996 15.6004H11.3996ZM15.5996 16.2004V17.4004C15.5996 17.7304 15.8696 18.0004 16.1996 18.0004H17.3996C17.7296 18.0004 17.9996 17.7304 17.9996 17.4004V16.2004C17.9996 15.8704 17.7296 15.6004 17.3996 15.6004H16.1996C15.8696 15.6004 15.5996 15.8704 15.5996 16.2004Z" fill="#AEAEAE"/>
</svg>
