<svg width="18" height="18" viewBox="0 0 18 18" fill="none" xmlns="http://www.w3.org/2000/svg">
<path d="M7.70096 3.25C8.27831 2.25 9.72169 2.25 10.299 3.25L15.4952 12.25C16.0725 13.25 15.3509 14.5 14.1962 14.5L3.80384 14.5C2.64914 14.5 1.92746 13.25 2.50481 12.25L7.70096 3.25Z" fill="#780000"/>
<path d="M8.94181 11.6741C9.13381 11.6741 9.29581 11.7401 9.42781 11.8721C9.55981 12.0041 9.62581 12.1661 9.62581 12.3581C9.62581 12.5501 9.55981 12.7121 9.42781 12.8441C9.29581 12.9761 9.13381 13.0421 8.94181 13.0421C8.74981 13.0421 8.58781 12.9761 8.45581 12.8441C8.32381 12.7121 8.25781 12.5501 8.25781 12.3581C8.25781 12.1661 8.32381 12.0041 8.45581 11.8721C8.58781 11.7401 8.74981 11.6741 8.94181 11.6741ZM8.94181 5.91406C9.13381 5.91406 9.28681 5.95606 9.40081 6.04006C9.52081 6.12406 9.57781 6.26506 9.57181 6.46306L9.42781 10.5761C9.42181 10.7621 9.36781 10.8911 9.26581 10.9631C9.16981 11.0351 9.06181 11.0711 8.94181 11.0711C8.82181 11.0711 8.71081 11.0351 8.60881 10.9631C8.51281 10.8911 8.46181 10.7621 8.45581 10.5761L8.31181 6.46306C8.30581 6.26506 8.35981 6.12406 8.47381 6.04006C8.59381 5.95606 8.74981 5.91406 8.94181 5.91406Z" fill="#FF5252"/>
</svg>
