<svg width="24" height="24" viewBox="0 0 24 24" fill="none" xmlns="http://www.w3.org/2000/svg">
<path d="M11.0719 5.24032V8.82368C11.0719 9.12039 11.0133 9.41418 10.8994 9.68818C10.7856 9.96219 10.6188 10.211 10.4086 10.4204C10.1983 10.6298 9.94883 10.7956 9.67436 10.9083C9.39989 11.021 9.10587 11.0784 8.80917 11.0771H5.24427C4.94837 11.0789 4.65515 11.021 4.38219 10.9067C4.10923 10.7924 3.86215 10.6242 3.65577 10.4122C3.44623 10.2044 3.28029 9.95684 3.16769 9.68407C3.05509 9.41129 2.9981 9.11878 3.00005 8.82368V5.24955C3.00004 4.65349 3.23619 4.08171 3.6568 3.65937C4.07741 3.23703 4.64822 2.99854 5.24427 2.99609H8.8184C9.114 2.99638 9.4066 3.0553 9.67927 3.16944C9.95194 3.28358 10.1993 3.45067 10.4069 3.66105C10.617 3.86698 10.784 4.11269 10.8982 4.38383C11.0123 4.65497 11.0714 4.94612 11.0719 5.24032ZM21 5.24955V8.82368C20.9952 9.41826 20.7575 9.98727 20.3379 10.4086C19.9184 10.8299 19.3503 11.0699 18.7558 11.0771H15.1724C14.5751 11.0735 14.0024 10.8384 13.5747 10.4214C13.3657 10.2113 13.2002 9.96202 13.0877 9.68786C12.9752 9.4137 12.9178 9.12003 12.919 8.82368V5.24955C12.9182 4.9538 12.9767 4.66089 13.0909 4.38808C13.2051 4.11527 13.3727 3.86807 13.5839 3.66105C13.7916 3.45067 14.0389 3.28358 14.3115 3.16944C14.5842 3.0553 14.8768 2.99638 15.1724 2.99609H18.7465C19.3427 3.00092 19.9131 3.23989 20.3346 3.66145C20.7562 4.08301 20.9952 4.65339 21 5.24955ZM21 15.1777V18.7518C20.9952 19.3464 20.7575 19.9154 20.3379 20.3367C19.9184 20.758 19.3503 20.998 18.7558 21.0053H15.1724C14.5713 21.0114 13.9914 20.7828 13.5562 20.368C13.3464 20.1585 13.1804 19.9094 13.0678 19.6351C12.9552 19.3608 12.8983 19.0668 12.9005 18.7703V15.1962C12.8997 14.9004 12.9582 14.6075 13.0724 14.3347C13.1866 14.0619 13.3542 13.8147 13.5654 13.6077C13.7731 13.3973 14.0204 13.2302 14.2931 13.116C14.5657 13.0019 14.8583 12.943 15.1539 12.9427H18.7281C19.3242 12.9475 19.8946 13.1865 20.3162 13.6081C20.7377 14.0296 20.9767 14.6 20.9815 15.1962L21 15.1777ZM11.0719 15.1869V18.7611C11.0646 19.3572 10.8233 19.9266 10.4 20.3464C9.97671 20.7663 9.40535 21.0029 8.80917 21.0053H5.24427C4.94921 21.0065 4.65683 20.9493 4.384 20.8369C4.11117 20.7246 3.86328 20.5593 3.65464 20.3507C3.446 20.142 3.28074 19.8942 3.16839 19.6213C3.05604 19.3485 2.99883 19.0561 3.00005 18.7611V15.1869C3.00243 14.5907 3.23906 14.0194 3.65889 13.5961C4.07873 13.1728 4.64813 12.9315 5.24427 12.9242H8.8184C9.41705 12.9304 9.98991 13.1688 10.4161 13.5892C10.8374 14.0141 11.0731 14.5886 11.0719 15.1869Z" fill="#AEAEAE"/>
</svg>
