<svg width="24" height="24" viewBox="0 0 24 24" fill="none" xmlns="http://www.w3.org/2000/svg">
<path d="M10.67 13.02C10.45 13.01 10.23 13 10 13C7.58 13 5.32 13.67 3.39 14.82C2.51 15.34 2 16.32 2 17.35V19C2 19.55 2.45 20 3 20H11.26C10.5534 18.9926 10.1265 17.8158 10.0229 16.5896C9.91924 15.3635 10.1425 14.1318 10.67 13.02Z" fill="#AEAEAE"/>
<path d="M10 12C12.2091 12 14 10.2091 14 8C14 5.79086 12.2091 4 10 4C7.79086 4 6 5.79086 6 8C6 10.2091 7.79086 12 10 12Z" fill="#AEAEAE"/>
<path d="M20.7509 15.9998C20.7509 15.7798 20.7209 15.5798 20.6909 15.3698L21.5309 14.6398C21.7109 14.4798 21.7509 14.2198 21.6309 14.0098L21.0409 12.9898C20.984 12.8896 20.8938 12.8127 20.7859 12.7724C20.678 12.7322 20.5594 12.7313 20.4509 12.7698L19.3909 13.1298C19.0709 12.8598 18.7109 12.6498 18.3109 12.4998L18.0909 11.4098C18.0678 11.2968 18.0064 11.1953 17.9171 11.1224C17.8279 11.0495 17.7161 11.0097 17.6009 11.0098H16.4209C16.1809 11.0098 15.9809 11.1798 15.9309 11.4098L15.7109 12.4998C15.3109 12.6498 14.9509 12.8598 14.6309 13.1298L13.5709 12.7698C13.4623 12.7325 13.3441 12.734 13.2365 12.7741C13.1289 12.8143 13.0385 12.8905 12.9809 12.9898L12.3909 14.0098C12.2709 14.2198 12.3109 14.4798 12.4909 14.6398L13.3309 15.3698C13.3009 15.5798 13.2709 15.7798 13.2709 15.9998C13.2709 16.2198 13.3009 16.4198 13.3309 16.6298L12.4909 17.3598C12.3109 17.5198 12.2709 17.7798 12.3909 17.9898L12.9809 19.0098C13.1009 19.2198 13.3509 19.3098 13.5709 19.2298L14.6309 18.8698C14.9509 19.1398 15.3109 19.3498 15.7109 19.4998L15.9309 20.5898C15.9809 20.8198 16.1809 20.9898 16.4209 20.9898H17.6009C17.8409 20.9898 18.0409 20.8198 18.0909 20.5898L18.3109 19.4998C18.7109 19.3498 19.0709 19.1398 19.3909 18.8698L20.4509 19.2298C20.6809 19.3098 20.9209 19.2098 21.0409 19.0098L21.6309 17.9898C21.7509 17.7798 21.7109 17.5198 21.5309 17.3598L20.6909 16.6298C20.7209 16.4198 20.7509 16.2198 20.7509 15.9998ZM17.0009 17.9998C15.9009 17.9998 15.0009 17.0998 15.0009 15.9998C15.0009 14.8998 15.9009 13.9998 17.0009 13.9998C18.1009 13.9998 19.0009 14.8998 19.0009 15.9998C19.0009 17.0998 18.1009 17.9998 17.0009 17.9998Z" fill="#AEAEAE"/>
</svg>
