<svg width="24" height="24" viewBox="0 0 24 24" fill="none" xmlns="http://www.w3.org/2000/svg">
<path d="M5.125 3.25C4.62772 3.25 4.15081 3.44754 3.79917 3.79917C3.44754 4.15081 3.25 4.62772 3.25 5.125V7.625C3.25 7.79076 3.18415 7.94973 3.06694 8.06694C2.94973 8.18415 2.79076 8.25 2.625 8.25C2.45924 8.25 2.30027 8.18415 2.18306 8.06694C2.06585 7.94973 2 7.79076 2 7.625V5.125C2 4.2962 2.32924 3.50134 2.91529 2.91529C3.50134 2.32924 4.2962 2 5.125 2H7.625C7.79076 2 7.94973 2.06585 8.06694 2.18306C8.18415 2.30027 8.25 2.45924 8.25 2.625C8.25 2.79076 8.18415 2.94973 8.06694 3.06694C7.94973 3.18415 7.79076 3.25 7.625 3.25H5.125ZM5.125 20.75C4.62772 20.75 4.15081 20.5525 3.79917 20.2008C3.44754 19.8492 3.25 19.3723 3.25 18.875V16.375C3.25 16.2092 3.18415 16.0503 3.06694 15.9331C2.94973 15.8158 2.79076 15.75 2.625 15.75C2.45924 15.75 2.30027 15.8158 2.18306 15.9331C2.06585 16.0503 2 16.2092 2 16.375V18.875C2 19.7038 2.32924 20.4987 2.91529 21.0847C3.50134 21.6708 4.2962 22 5.125 22H7.625C7.79076 22 7.94973 21.9342 8.06694 21.8169C8.18415 21.6997 8.25 21.5408 8.25 21.375C8.25 21.2092 8.18415 21.0503 8.06694 20.9331C7.94973 20.8158 7.79076 20.75 7.625 20.75H5.125ZM20.75 5.125C20.75 4.62772 20.5525 4.15081 20.2008 3.79917C19.8492 3.44754 19.3723 3.25 18.875 3.25H16.375C16.2092 3.25 16.0503 3.18415 15.9331 3.06694C15.8158 2.94973 15.75 2.79076 15.75 2.625C15.75 2.45924 15.8158 2.30027 15.9331 2.18306C16.0503 2.06585 16.2092 2 16.375 2H18.875C19.7038 2 20.4987 2.32924 21.0847 2.91529C21.6708 3.50134 22 4.2962 22 5.125V7.625C22 7.79076 21.9342 7.94973 21.8169 8.06694C21.6997 8.18415 21.5408 8.25 21.375 8.25C21.2092 8.25 21.0503 8.18415 20.9331 8.06694C20.8158 7.94973 20.75 7.79076 20.75 7.625V5.125ZM18.875 20.75C19.3723 20.75 19.8492 20.5525 20.2008 20.2008C20.5525 19.8492 20.75 19.3723 20.75 18.875V16.375C20.75 16.2092 20.8158 16.0503 20.9331 15.9331C21.0503 15.8158 21.2092 15.75 21.375 15.75C21.5408 15.75 21.6997 15.8158 21.8169 15.9331C21.9342 16.0503 22 16.2092 22 16.375V18.875C22 19.7038 21.6708 20.4987 21.0847 21.0847C20.4987 21.6708 19.7038 22 18.875 22H16.375C16.2092 22 16.0503 21.9342 15.9331 21.8169C15.8158 21.6997 15.75 21.5408 15.75 21.375C15.75 21.2092 15.8158 21.0503 15.9331 20.9331C16.0503 20.8158 16.2092 20.75 16.375 20.75H18.875ZM8.25 5.75C7.58696 5.75 6.95107 6.01339 6.48223 6.48223C6.01339 6.95107 5.75 7.58696 5.75 8.25V9.5H18.25V8.25C18.25 7.58696 17.9866 6.95107 17.5178 6.48223C17.0489 6.01339 16.413 5.75 15.75 5.75H8.25ZM5.75 15.75V10.75H18.25V15.75C18.25 16.413 17.9866 17.0489 17.5178 17.5178C17.0489 17.9866 16.413 18.25 15.75 18.25H8.25C7.58696 18.25 6.95107 17.9866 6.48223 17.5178C6.01339 17.0489 5.75 16.413 5.75 15.75Z" fill="#AEAEAE"/>
</svg>
