<svg width="24" height="24" viewBox="0 0 24 24" fill="none" xmlns="http://www.w3.org/2000/svg">
<path d="M19.4 8.4L14 3H6.8C6.32261 3 5.86477 3.18964 5.52721 3.52721C5.18964 3.86477 5 4.32261 5 4.8V19.2C5 19.6774 5.18964 20.1352 5.52721 20.4728C5.86477 20.8104 6.32261 21 6.8 21H17.6C18.0774 21 18.5352 20.8104 18.8728 20.4728C19.2104 20.1352 19.4 19.6774 19.4 19.2V8.4ZM9.5 18.3H7.7V10.2H9.5V18.3ZM13.1 18.3H11.3V12.9H13.1V18.3ZM16.7 18.3H14.9V15.6H16.7V18.3ZM14 9.3H13.1V4.8L17.6 9.3H14Z" fill="#454545"/>
</svg>
