<svg width="24" height="24" viewBox="0 0 24 24" fill="none" xmlns="http://www.w3.org/2000/svg">
<path d="M5.85005 4C4.85594 4 4.05005 4.80589 4.05005 5.8V20.65C4.05005 20.8985 4.25152 21.1 4.50005 21.1H6.75005H9.17755C9.35523 21.1 9.52894 21.0474 9.67678 20.9488L11.7493 19.5672C11.9997 19.4003 12.15 19.1193 12.15 18.8183V13H8.55005C8.05299 13 7.65005 12.5971 7.65005 12.1C7.65005 11.6029 8.05299 11.2 8.55005 11.2H14.373L19.599 13.809C19.8982 13.9584 20.25 13.7408 20.25 13.4064V5.8C20.25 4.80589 19.4442 4 18.45 4H5.85005ZM16.65 8.5C16.65 8.99706 16.2471 9.4 15.75 9.4H8.55005C8.05299 9.4 7.65005 8.99706 7.65005 8.5C7.65005 8.00294 8.05299 7.6 8.55005 7.6H15.75C16.2471 7.6 16.65 8.00294 16.65 8.5ZM14.6013 21.6744C14.3021 21.824 13.95 21.6064 13.95 21.2719V18.7513C13.95 18.5449 14.0906 18.3649 14.2909 18.3148L17.55 17.5L14.2909 16.6852C14.0906 16.6351 13.95 16.4551 13.95 16.2487V13.7281C13.95 13.3936 14.3021 13.176 14.6013 13.3256L22.95 17.5L14.6013 21.6744Z" fill="#7E7E7E"/>
</svg>
