<svg width="24" height="24" viewBox="0 0 24 24" fill="none" xmlns="http://www.w3.org/2000/svg">
<path fill-rule="evenodd" clip-rule="evenodd" d="M10.5506 3.00021H13.4174C13.8494 2.99378 14.2723 3.13519 14.613 3.4013C14.9562 3.67127 15.1941 4.05051 15.2815 4.47731L15.5322 5.67931C15.641 5.73759 15.7481 5.79758 15.8536 5.85929L17.0684 5.46077C17.3183 5.3801 17.5822 5.35205 17.8435 5.37838C18.1048 5.40471 18.3578 5.48485 18.5867 5.61375C18.8695 5.77316 19.1073 6.00199 19.2731 6.28224L20.7194 8.66823C20.9532 9.03795 21.0454 9.47974 20.979 9.91211C20.9126 10.3445 20.6921 10.7383 20.3582 11.0208H20.3556L19.4017 11.8346V12.1662L20.344 13.0057C20.6715 13.2836 20.8897 13.6688 20.9596 14.0926C21.0295 14.5164 20.9467 14.9513 20.7258 15.3197L19.3246 17.7108V17.7134C19.1578 17.9924 18.9215 18.2234 18.6386 18.3836C18.3558 18.5438 18.0362 18.6278 17.7112 18.6274C17.5102 18.6285 17.3102 18.5982 17.1185 18.5375L17.1121 18.5349L15.9076 18.1376C15.8004 18.2011 15.6916 18.2615 15.581 18.3189L15.3316 19.5196C15.2436 19.9466 15.0067 20.3284 14.6631 20.5969C14.3216 20.8641 13.8986 21.0057 13.465 20.998H10.5751C10.1424 21.0051 9.72034 20.8636 9.3795 20.5969C9.03623 20.3288 8.79932 19.9474 8.71101 19.5209L8.46032 18.3176C8.35178 18.2602 8.24462 18.2002 8.13893 18.1376L6.92408 18.5362C6.67416 18.6168 6.41025 18.6449 6.14895 18.6185C5.88766 18.5922 5.63465 18.5121 5.40584 18.3832C5.12263 18.2252 4.8859 17.9955 4.71935 17.7173L3.27182 15.3261C3.04737 14.9639 2.95771 14.5342 3.0186 14.1124C3.07949 13.6906 3.28703 13.3038 3.60477 13.0198L4.56509 11.8088L3.64848 10.9925C3.32056 10.7143 3.10224 10.3285 3.03253 9.90416C2.96282 9.47979 3.04627 9.04446 3.26796 8.67594L3.27053 8.67337L4.71935 6.28224C4.88368 6.00583 5.11672 5.77663 5.39582 5.61692C5.67492 5.45721 5.99059 5.37241 6.31216 5.37078C6.50585 5.36049 6.69697 5.37892 6.88552 5.42606L6.9138 5.43377L8.11579 5.85672C8.22121 5.79501 8.32834 5.73588 8.43718 5.67931L8.68658 4.4786C8.77461 4.05159 9.01154 3.66977 9.35507 3.4013C9.69446 3.13519 10.1187 2.99378 10.5506 3.00021ZM11.9995 9.42799C11.3176 9.42799 10.6636 9.69888 10.1814 10.1811C9.69923 10.6632 9.42835 11.3172 9.42835 11.9991C9.42835 12.681 9.69923 13.335 10.1814 13.8172C10.6636 14.2993 11.3176 14.5702 11.9995 14.5702C12.6814 14.5702 13.3353 14.2993 13.8175 13.8172C14.2997 13.335 14.5706 12.681 14.5706 11.9991C14.5706 11.3172 14.2997 10.6632 13.8175 10.1811C13.3353 9.69888 12.6814 9.42799 11.9995 9.42799ZM8.14279 11.9991C8.14279 10.9763 8.54912 9.9953 9.27238 9.27203C9.99565 8.54876 10.9766 8.14244 11.9995 8.14244C13.0223 8.14244 14.0033 8.54876 14.7265 9.27203C15.4498 9.9953 15.8561 10.9763 15.8561 11.9991C15.8561 13.022 15.4498 14.0029 14.7265 14.7262C14.0033 15.4495 13.0223 15.8558 11.9995 15.8558C10.9766 15.8558 9.99565 15.4495 9.27238 14.7262C8.54912 14.0029 8.14279 13.022 8.14279 11.9991Z" fill="#AEAEAE"/>
</svg>
