<svg width="24" height="24" viewBox="0 0 24 24" fill="none" xmlns="http://www.w3.org/2000/svg">
<path d="M21 5C21 3.89543 20.1046 3 19 3H13V21H19C20.1046 21 21 20.1046 21 19V5Z" fill="#AEAEAE"/>
<path d="M11 21H5C3.89543 21 3 20.1046 3 19V5C3 3.89543 3.89543 3 5 3H11V21ZM5.99121 9C5.72905 9.0023 5.47835 9.10758 5.29297 9.29297C5.10758 9.47835 5.0023 9.72905 5 9.99121C4.99772 10.2532 5.09837 10.5058 5.28027 10.6943L6.57324 11.9873L5.28027 13.2803C5.09812 13.4689 4.99772 13.7222 5 13.9844C5.00235 14.2465 5.10762 14.4973 5.29297 14.6826C5.47835 14.868 5.72909 14.9733 5.99121 14.9756C6.2534 14.9779 6.50573 14.8765 6.69434 14.6943L8.69434 12.6943C8.88181 12.5068 8.9873 12.2525 8.9873 11.9873C8.9872 11.7223 8.88171 11.4677 8.69434 11.2803L6.69434 9.28027C6.50578 9.09837 6.25322 8.99772 5.99121 9Z" fill="#AEAEAE"/>
</svg>
