<svg width="24" height="24" viewBox="0 0 24 24" fill="none" xmlns="http://www.w3.org/2000/svg">
<path fill-rule="evenodd" clip-rule="evenodd" d="M12.2767 12.6747C11.0236 12.6741 9.80035 13.0569 8.77119 13.7717C7.74204 14.4865 6.95626 15.4991 6.51939 16.6736C6.36382 17.0889 6.69579 17.5 7.13887 17.5H17.413C17.8561 17.5 18.1867 17.0889 18.0311 16.6736C17.5944 15.4996 16.8091 14.4873 15.7805 13.7725C14.7519 13.0577 13.5292 12.6746 12.2767 12.6747ZM15.3435 8.07031C15.3435 8.88461 15.02 9.66555 14.4442 10.2413C13.8684 10.8171 13.0875 11.1406 12.2732 11.1406C11.4589 11.1406 10.6779 10.8171 10.1021 10.2413C9.52635 9.66555 9.20287 8.88461 9.20287 8.07031C9.20287 7.25601 9.52635 6.47507 10.1021 5.89927C10.6779 5.32348 11.4589 5 12.2732 5C13.0875 5 13.8684 5.32348 14.4442 5.89927C15.02 6.47507 15.3435 7.25601 15.3435 8.07031Z" fill="#AEAEAE"/>
<path d="M5.125 3.25C4.62772 3.25 4.15081 3.44754 3.79917 3.79917C3.44754 4.15081 3.25 4.62772 3.25 5.125V7.625C3.25 7.79076 3.18415 7.94973 3.06694 8.06694C2.94973 8.18415 2.79076 8.25 2.625 8.25C2.45924 8.25 2.30027 8.18415 2.18306 8.06694C2.06585 7.94973 2 7.79076 2 7.625V5.125C2 4.2962 2.32924 3.50134 2.91529 2.91529C3.50134 2.32924 4.2962 2 5.125 2H7.625C7.79076 2 7.94973 2.06585 8.06694 2.18306C8.18415 2.30027 8.25 2.45924 8.25 2.625C8.25 2.79076 8.18415 2.94973 8.06694 3.06694C7.94973 3.18415 7.79076 3.25 7.625 3.25H5.125ZM5.125 20.75C4.62772 20.75 4.15081 20.5525 3.79917 20.2008C3.44754 19.8492 3.25 19.3723 3.25 18.875V16.375C3.25 16.2092 3.18415 16.0503 3.06694 15.9331C2.94973 15.8158 2.79076 15.75 2.625 15.75C2.45924 15.75 2.30027 15.8158 2.18306 15.9331C2.06585 16.0503 2 16.2092 2 16.375V18.875C2 19.7038 2.32924 20.4987 2.91529 21.0847C3.50134 21.6708 4.2962 22 5.125 22H7.625C7.79076 22 7.94973 21.9342 8.06694 21.8169C8.18415 21.6997 8.25 21.5408 8.25 21.375C8.25 21.2092 8.18415 21.0503 8.06694 20.9331C7.94973 20.8158 7.79076 20.75 7.625 20.75H5.125ZM20.75 5.125C20.75 4.62772 20.5525 4.15081 20.2008 3.79917C19.8492 3.44754 19.3723 3.25 18.875 3.25H16.375C16.2092 3.25 16.0503 3.18415 15.9331 3.06694C15.8158 2.94973 15.75 2.79076 15.75 2.625C15.75 2.45924 15.8158 2.30027 15.9331 2.18306C16.0503 2.06585 16.2092 2 16.375 2H18.875C19.7038 2 20.4987 2.32924 21.0847 2.91529C21.6708 3.50134 22 4.2962 22 5.125V7.625C22 7.79076 21.9342 7.94973 21.8169 8.06694C21.6997 8.18415 21.5408 8.25 21.375 8.25C21.2092 8.25 21.0503 8.18415 20.9331 8.06694C20.8158 7.94973 20.75 7.79076 20.75 7.625V5.125ZM18.875 20.75C19.3723 20.75 19.8492 20.5525 20.2008 20.2008C20.5525 19.8492 20.75 19.3723 20.75 18.875V16.375C20.75 16.2092 20.8158 16.0503 20.9331 15.9331C21.0503 15.8158 21.2092 15.75 21.375 15.75C21.5408 15.75 21.6997 15.8158 21.8169 15.9331C21.9342 16.0503 22 16.2092 22 16.375V18.875C22 19.7038 21.6708 20.4987 21.0847 21.0847C20.4987 21.6708 19.7038 22 18.875 22H16.375C16.2092 22 16.0503 21.9342 15.9331 21.8169C15.8158 21.6997 15.75 21.5408 15.75 21.375C15.75 21.2092 15.8158 21.0503 15.9331 20.9331C16.0503 20.8158 16.2092 20.75 16.375 20.75H18.875Z" fill="#AEAEAE"/>
</svg>
